<svg xmlns="http://www.w3.org/2000/svg" viewBox="0 0 900 580" font-family="sans-serif" font-size="12">
<defs><marker id="a" viewBox="0 0 10 10" refX="9" refY="5" markerWidth="7" markerHeight="7" orient="auto-start-reverse"><path d="M0,0 L10,5 L0,10 z" fill="#333"/></marker><marker id="b" viewBox="0 0 10 10" refX="1" refY="5" markerWidth="7" markerHeight="7" orient="auto-start-reverse"><path d="M10,0 L0,5 L10,10 z" fill="#333"/></marker></defs>
<rect width="900" height="580" fill="white"/>
<rect x="8" y="35" width="884" height="95" rx="8" fill="#fafafa" stroke="#ddd"/>
<text x="20" y="49" font-size="11" font-weight="bold" fill="#777">1 · COSTRUZIONE DEL CORPUS (una volta)</text>
<rect x="20" y="60" width="150" height="55" rx="6" fill="#f3f4f6" stroke="#6b7280" stroke-width="1.5" stroke-dasharray="5 3"/>
<text x="95.0" y="83.5" text-anchor="middle" font-weight="bold">Scansioni</text>
<text x="95.0" y="99.5" text-anchor="middle" fill="#444" font-size="10.5">134 TIFF / PDF</text>
<rect x="200" y="60" width="150" height="55" rx="6" fill="#fed7aa" stroke="#ea580c" stroke-width="1.5"/>
<text x="275.0" y="83.5" text-anchor="middle" font-weight="bold">OCR</text>
<text x="275.0" y="99.5" text-anchor="middle" fill="#444" font-size="10.5">Tesseract ita + OSD</text>
<rect x="380" y="60" width="150" height="55" rx="6" fill="#f3f4f6" stroke="#6b7280" stroke-width="1.5" stroke-dasharray="5 3"/>
<text x="455.0" y="83.5" text-anchor="middle" font-weight="bold">data/ocr/*.txt</text>
<text x="455.0" y="99.5" text-anchor="middle" fill="#444" font-size="10.5">testo grezzo</text>
<rect x="560" y="60" width="150" height="55" rx="6" fill="#dbeafe" stroke="#2563eb" stroke-width="1.5"/>
<text x="635.0" y="83.5" text-anchor="middle" font-weight="bold">OcrParser</text>
<text x="635.0" y="99.5" text-anchor="middle" fill="#444" font-size="10.5">CorpusBuilder</text>
<rect x="740" y="60" width="150" height="55" rx="6" fill="#f3f4f6" stroke="#6b7280" stroke-width="1.5" stroke-dasharray="5 3"/>
<text x="815.0" y="83.5" text-anchor="middle" font-weight="bold">data/corpus.tsv</text>
<text x="815.0" y="99.5" text-anchor="middle" fill="#444" font-size="10.5">1067 righe articolo</text>
<path d="M170,87 L200,87" fill="none" stroke="#333" stroke-width="1.5" marker-end="url(#a)"/>
<path d="M350,87 L380,87" fill="none" stroke="#333" stroke-width="1.5" marker-end="url(#a)"/>
<path d="M530,87 L560,87" fill="none" stroke="#333" stroke-width="1.5" marker-end="url(#a)"/>
<path d="M710,87 L740,87" fill="none" stroke="#333" stroke-width="1.5" marker-end="url(#a)"/>
<rect x="8" y="145" width="884" height="175" rx="8" fill="#fafafa" stroke="#ddd"/>
<text x="180" y="159" font-size="11" font-weight="bold" fill="#777">2 · INDICI (in memoria; copia su file)</text>
<rect x="20" y="170" width="130" height="50" rx="6" fill="#dbeafe" stroke="#2563eb" stroke-width="1.5"/>
<text x="85.0" y="191.0" text-anchor="middle" font-weight="bold">Tokenizer</text>
<text x="85.0" y="207.0" text-anchor="middle" fill="#444" font-size="10.5">minuscole, token</text>
<rect x="20" y="250" width="130" height="50" rx="6" fill="#dbeafe" stroke="#2563eb" stroke-width="1.5"/>
<text x="85.0" y="271.0" text-anchor="middle" font-weight="bold">OcrCorrector</text>
<text x="85.0" y="287.0" text-anchor="middle" fill="#444" font-size="10.5">scambi 0/o 1/i 5/s…</text>
<rect x="170" y="170" width="270" height="130" rx="6" fill="#dbeafe" stroke="#2563eb" stroke-width="1.5"/>
<text x="305.0" y="215.0" text-anchor="middle" font-weight="bold">InvertedIndex</text>
<text x="305.0" y="231.0" text-anchor="middle" fill="#444" font-size="10.5">TabellaHash: termine → voce</text>
<text x="305.0" y="247.0" text-anchor="middle" fill="#444" font-size="10.5">AlberoBinarioRicerca: ordine, prefissi</text>
<text x="305.0" y="263.0" text-anchor="middle" fill="#444" font-size="10.5">PostingList con skip pointers</text>
<rect x="480" y="170" width="210" height="50" rx="6" fill="#dbeafe" stroke="#2563eb" stroke-width="1.5"/>
<text x="585.0" y="191.0" text-anchor="middle" font-weight="bold">KGramIndex</text>
<text x="585.0" y="207.0" text-anchor="middle" fill="#444" font-size="10.5">trigrammi: wildcard, fuzzy</text>
<rect x="480" y="250" width="210" height="50" rx="6" fill="#dbeafe" stroke="#2563eb" stroke-width="1.5"/>
<text x="585.0" y="271.0" text-anchor="middle" font-weight="bold">CompressedIndex</text>
<text x="585.0" y="287.0" text-anchor="middle" fill="#444" font-size="10.5">gap + VByte</text>
<rect x="730" y="250" width="160" height="50" rx="6" fill="#f3f4f6" stroke="#6b7280" stroke-width="1.5" stroke-dasharray="5 3"/>
<text x="810.0" y="271.0" text-anchor="middle" font-weight="bold">data/indice.bin</text>
<text x="810.0" y="287.0" text-anchor="middle" fill="#444" font-size="10.5">(opzionale)</text>
<path d="M150,195 L170,195" fill="none" stroke="#333" stroke-width="1.5" marker-end="url(#a)"/>
<path d="M150,275 L170,275" fill="none" stroke="#333" stroke-width="1.5" marker-end="url(#a)" marker-start="url(#b)"/>
<path d="M440,195 L480,195" fill="none" stroke="#333" stroke-width="1.5" marker-end="url(#a)"/>
<path d="M440,275 L480,275" fill="none" stroke="#333" stroke-width="1.5" marker-end="url(#a)" marker-start="url(#b)"/>
<path d="M690,275 L730,275" fill="none" stroke="#333" stroke-width="1.5" marker-end="url(#a)" marker-start="url(#b)"/>
<path d="M815,115 L815,132 L85,132 L85,170" fill="none" stroke="#333" stroke-width="1.5" marker-end="url(#a)"/>
<rect x="8" y="335" width="884" height="205" rx="8" fill="#fafafa" stroke="#ddd"/>
<text x="20" y="349" font-size="11" font-weight="bold" fill="#777">3 · RICERCA E USO</text>
<rect x="20" y="365" width="230" height="70" rx="6" fill="#dbeafe" stroke="#2563eb" stroke-width="1.5"/>
<text x="135.0" y="396.0" text-anchor="middle" font-weight="bold">Ranker + HeapBinario</text>
<text x="135.0" y="412.0" text-anchor="middle" fill="#444" font-size="10.5">TF-IDF, BM25; primi k risultati</text>
<rect x="300" y="365" width="300" height="70" rx="6" fill="#dbeafe" stroke="#2563eb" stroke-width="1.5"/>
<text x="450.0" y="388.0" text-anchor="middle" font-weight="bold">Searcher</text>
<text x="450.0" y="404.0" text-anchor="middle" fill="#444" font-size="10.5">AND di parole · wildcard · fuzzy</text>
<text x="450.0" y="420.0" text-anchor="middle" fill="#444" font-size="10.5">interfaccia Indice (memoria o file)</text>
<rect x="650" y="365" width="240" height="70" rx="6" fill="#dbeafe" stroke="#2563eb" stroke-width="1.5"/>
<text x="770.0" y="396.0" text-anchor="middle" font-weight="bold">Cli · WebServer</text>
<text x="770.0" y="412.0" text-anchor="middle" fill="#444" font-size="10.5">barra di ricerca e opzioni</text>
<path d="M250,400 L300,400" fill="none" stroke="#333" stroke-width="1.5" marker-end="url(#a)"/>
<path d="M600,400 L650,400" fill="none" stroke="#333" stroke-width="1.5" marker-end="url(#a)"/>
<path d="M305,300 L340,300 L340,365" fill="none" stroke="#333" stroke-width="1.5" marker-end="url(#a)"/>
<path d="M690,195 L712,195 L712,350 L500,350 L500,365" fill="none" stroke="#333" stroke-width="1.5" marker-end="url(#a)"/>
<rect x="300" y="470" width="300" height="50" rx="6" fill="#dbeafe" stroke="#2563eb" stroke-width="1.5"/>
<text x="450.0" y="491.0" text-anchor="middle" font-weight="bold">Benchmark e test collection</text>
<text x="450.0" y="507.0" text-anchor="middle" fill="#444" font-size="10.5">P, R, F1, accuratezza, MAP</text>
<path d="M450,470 L450,435" fill="none" stroke="#333" stroke-width="1.5" marker-end="url(#a)"/>
<rect x="20" y="552" width="22" height="14" rx="3" fill="#dbeafe" stroke="#2563eb" stroke-width="1.5"/>
<text x="50" y="563" fill="#444">codice del progetto</text>
<rect x="270" y="552" width="22" height="14" rx="3" fill="#fed7aa" stroke="#ea580c" stroke-width="1.5"/>
<text x="300" y="563" fill="#444">libreria / strumento esterno</text>
<rect x="520" y="552" width="22" height="14" rx="3" fill="#f3f4f6" stroke="#6b7280" stroke-width="1.5" stroke-dasharray="4 2"/>
<text x="550" y="563" fill="#444">dati e file</text>
</svg>